<svg width="24" height="24" xmlns="http://www.w3.org/2000/svg"><path d="M0 20c0 .733.6 1.333 1.333 1.333H8v-2.666H1.333C.6 18.667 0 19.267 0 20ZM0 4c0 .733.6 1.333 1.333 1.333h12V2.667h-12C.6 2.667 0 3.267 0 4Zm13.333 18.667v-1.334h9.334c.733 0 1.333-.6 1.333-1.333s-.6-1.333-1.333-1.333h-9.334v-1.334c0-.733-.6-1.333-1.333-1.333s-1.333.6-1.333 1.333v5.334c0 .733.6 1.333 1.333 1.333s1.333-.6 1.333-1.333Zm-8-13.334v1.334h-4C.6 10.667 0 11.267 0 12s.6 1.333 1.333 1.333h4v1.334c0 .733.6 1.333 1.334 1.333C7.4 16 8 15.4 8 14.667V9.333C8 8.6 7.4 8 6.667 8c-.734 0-1.334.6-1.334 1.333ZM24 12c0-.733-.6-1.333-1.333-1.333h-12v2.666h12c.733 0 1.333-.6 1.333-1.333Zm-6.667-4c.734 0 1.334-.6 1.334-1.333V5.333h4C23.4 5.333 24 4.733 24 4s-.6-1.333-1.333-1.333h-4V1.333C18.667.6 18.067 0 17.333 0 16.6 0 16 .6 16 1.333v5.334C16 7.4 16.6 8 17.333 8Z"/></svg>